<?xml version="1.0" encoding="UTF-8"?>
<svg version="1.1" xmlns="http://www.w3.org/2000/svg" width="500" height="500">
<path d="M0 0 C165 0 330 0 500 0 C500 165 500 330 500 500 C335 500 170 500 0 500 C0 335 0 170 0 0 Z " fill="#FFFEFE" transform="translate(0,0)"/>
<path d="M0 0 C6.6 0 13.2 0 20 0 C20 18.15 20 36.3 20 55 C20.99 55 21.98 55 23 55 C22.95359375 53.96101563 22.9071875 52.92203125 22.859375 51.8515625 C22.56790725 42.65597573 22.33248836 34.11704657 28.90625 26.91015625 C34.62102744 21.69648803 38.29572369 19.70064441 46.171875 20.0234375 C47.4206543 20.06903809 48.66943359 20.11463867 49.95605469 20.16162109 C52.32905762 20.26724365 52.32905762 20.26724365 54.75 20.375 C62.29875 20.684375 62.29875 20.684375 70 21 C70 32.22 70 43.44 70 55 C71.32 55 72.64 55 74 55 C73.7126705 56.83401808 73.41988417 58.66718144 73.125 60.5 C72.96257812 61.5209375 72.80015625 62.541875 72.6328125 63.59375 C71.9162181 67.45097418 70.98246249 71.20224583 70 75 C65.85422725 75.05863894 61.70856295 75.09380984 57.5625 75.125 C56.39783203 75.14175781 55.23316406 75.15851563 54.03320312 75.17578125 C36.54922181 75.27428255 36.54922181 75.27428255 30.625 69.8125 C29.99851562 69.26207031 29.37203125 68.71164062 28.7265625 68.14453125 C27 66 27 66 24 59 C22.68 64.28 21.36 69.56 20 75 C13.4 75 6.8 75 0 75 C0 56.85 0 38.7 0 20 C-1.32 20 -2.64 20 -4 20 C-3.33853789 13.12079403 -1.74774987 6.68704297 0 0 Z " fill="#FFB169" transform="translate(255,217)"/>
<path d="M0 0 C6.119605 4.51685131 8.58746758 8.84992435 11.625 15.9375 C12.945 10.6575 14.265 5.3775 15.625 -0.0625 C26.29166667 -0.0625 36.95833333 -0.0625 47.625 -0.0625 C46.5663873 6.69460231 45.40374156 13.33074562 43.625 19.9375 C42.655625 19.916875 41.68625 19.89625 40.6875 19.875 C37.75034105 19.58131501 37.75034105 19.58131501 36.625 20.9375 C36.46519563 23.38358998 36.36570553 25.80481058 36.30859375 28.25390625 C36.2774221 29.35048805 36.2774221 29.35048805 36.24562073 30.46922302 C36.18004976 32.81271656 36.12120568 35.15632539 36.0625 37.5 C36.01932192 39.08529855 35.97570787 40.67058529 35.93164062 42.25585938 C35.82353718 46.14962298 35.72452117 50.04346958 35.625 53.9375 C29.025 53.9375 22.425 53.9375 15.625 53.9375 C15.625 42.7175 15.625 31.4975 15.625 19.9375 C14.635 19.9375 13.645 19.9375 12.625 19.9375 C12.625 23.8975 12.625 27.8575 12.625 31.9375 C5.035 32.2675 -2.555 32.5975 -10.375 32.9375 C-8.45531174 35.29461318 -8.45531174 35.29461318 -5.07421875 35.16796875 C-3.73690842 35.16397678 -2.39959698 35.14921815 -1.0625 35.125 C0.25363281 35.11855469 1.56976563 35.11210937 2.92578125 35.10546875 C5.9701358 34.96723512 8.67397842 34.65099651 11.625 33.9375 C10.51809248 40.34343286 9.28554831 46.65113856 7.625 52.9375 C3.30619244 54.1451688 -0.79113932 54.15868668 -5.25 54.1875 C-6.04019531 54.208125 -6.83039063 54.22875 -7.64453125 54.25 C-14.61430312 54.29638783 -19.5707852 52.21258541 -24.921875 47.59375 C-31.58538914 39.9987769 -32.73065129 31.18021985 -32.66015625 21.4921875 C-32.26979192 16.62600203 -30.91099141 13.06400866 -28.375 8.9375 C-27.818125 8.03 -27.26125 7.1225 -26.6875 6.1875 C-19.03994148 -1.25336775 -10.24314288 -3.22469313 0 0 Z " fill="#FFB169" transform="translate(394.375,238.0625)"/>
<path d="M0 0 C1.87316895 0.00749268 1.87316895 0.00749268 3.78417969 0.01513672 C5.36618164 0.03334473 6.94818359 0.05155273 8.578125 0.0703125 C16.126875 0.1321875 16.126875 0.1321875 23.828125 0.1953125 C23.828125 11.4153125 23.828125 22.6353125 23.828125 34.1953125 C24.818125 34.1953125 25.808125 34.1953125 26.828125 34.1953125 C27.06545545 39.77257797 26.40658531 44.82624311 24.828125 50.1953125 C23.828125 51.1953125 23.828125 51.1953125 20.01171875 51.29296875 C18.42965818 51.28629339 16.84761341 51.27433125 15.265625 51.2578125 C14.45931641 51.25330078 13.65300781 51.24878906 12.82226562 51.24414062 C10.82418744 51.23231768 8.82614717 51.21438164 6.828125 51.1953125 C6.498125 48.5553125 6.168125 45.9153125 5.828125 43.1953125 C5.168125 45.8353125 4.508125 48.4753125 3.828125 51.1953125 C-3.13729022 51.69984962 -7.48543964 51.40327467 -13.171875 47.1953125 C-18.39531967 42.2620592 -19.87712323 35.70843494 -20.4609375 28.75 C-20.70080029 18.65395697 -19.55330506 11.2575656 -12.76953125 3.60546875 C-8.743137 0.05160976 -5.2927432 -0.04338314 0 0 Z " fill="#FFA959" transform="translate(111.171875,165.8046875)"/>
<path d="M0 0 C5.61 0 11.22 0 17 0 C16.35878215 3.31345595 15.71226545 6.6257197 15.0625 9.9375 C14.88009766 10.88302734 14.69769531 11.82855469 14.50976562 12.80273438 C14.33251953 13.70185547 14.15527344 14.60097656 13.97265625 15.52734375 C13.81031494 16.35999756 13.64797363 17.19265137 13.48071289 18.05053711 C13 20 13 20 12 21 C9.03 21 6.06 21 3 21 C3 37.83 3 54.66 3 72 C-3.27 72 -9.54 72 -16 72 C-16 55.17 -16 38.34 -16 21 C-19.3 21 -22.6 21 -26 21 C-25.52342708 18.39533418 -25.04385281 15.79128286 -24.5625 13.1875 C-24.42779297 12.44951172 -24.29308594 11.71152344 -24.15429688 10.95117188 C-23.58580263 7.88684924 -22.98690349 4.96071047 -22 2 C-14.74 2 -7.48 2 0 2 C0 1.34 0 0.68 0 0 Z " fill="#FFA959" transform="translate(41,145)"/>
<path d="M0 0 C-0.28438952 1.89693861 -0.57783792 3.79252027 -0.875 5.6875 C-1.03742188 6.74324219 -1.19984375 7.79898438 -1.3671875 8.88671875 C-1.95893069 11.79794914 -2.8031806 14.28955607 -4 17 C-6.64 16.34 -9.28 15.68 -12 15 C-11.39671875 15.35191406 -10.7934375 15.70382812 -10.171875 16.06640625 C-5.02154448 19.2479814 -0.78351062 21.99984506 1 28 C1.76044059 32.96287544 1.67989914 37.3721102 -0.6875 41.875 C-3.78157741 46.0561857 -7.15392525 49.06817463 -12 51 C-20.5027641 51.76218025 -28.08309934 51.33343186 -36 48 C-35.42978625 41.04339229 -33.98697306 34.68572695 -32 28 C-31.45730469 28.28875 -30.91460937 28.5775 -30.35546875 28.875 C-29.64003906 29.24625 -28.92460937 29.6175 -28.1875 30 C-27.47980469 30.37125 -26.77210938 30.7425 -26.04296875 31.125 C-23.91079271 32.19685358 -23.91079271 32.19685358 -21 32 C-21.59167969 31.64808594 -22.18335938 31.29617188 -22.79296875 30.93359375 C-27.89145849 27.74807732 -32.65143812 24.73591075 -35 19 C-35.88523875 14.09957119 -35.68128362 9.65409992 -33.375 5.1875 C-25.08268295 -5.94166235 -11.69206883 -7.33620005 0 0 Z " fill="#FFFDFC" transform="translate(476,241)"/>
<path d="M0 0 C1.14210938 -0.01417969 2.28421875 -0.02835938 3.4609375 -0.04296875 C6.46436816 0.17579966 8.10425934 0.61669363 10.625 2.1875 C10.625 1.5275 10.625 0.8675 10.625 0.1875 C14.915 0.1875 19.205 0.1875 23.625 0.1875 C23.625 11.4075 23.625 22.6275 23.625 34.1875 C24.615 34.1875 25.605 34.1875 26.625 34.1875 C26.48269192 35.60452513 26.33599254 37.0211096 26.1875 38.4375 C26.10628906 39.22640625 26.02507812 40.0153125 25.94140625 40.828125 C25.625 43.1875 25.625 43.1875 24.625 47.1875 C19.675 47.1875 14.725 47.1875 9.625 47.1875 C9.57601563 44.97289062 9.52703125 42.75828125 9.4765625 40.4765625 C9.42257508 38.33521683 9.36525896 36.19398442 9.30761719 34.05273438 C9.26930002 32.56291111 9.23445192 31.07299446 9.203125 29.58300781 C9.15753271 27.44301952 9.09953126 25.30367564 9.0390625 23.1640625 C8.99193115 21.23167725 8.99193115 21.23167725 8.94384766 19.26025391 C8.94041732 16.08268495 8.94041732 16.08268495 6.625 14.1875 C3.54152174 14.02068891 3.54152174 14.02068891 0.625 14.1875 C-1.20698669 17.31563537 -1.62301923 19.57835291 -1.5625 23.1875 C-1.55605469 24.033125 -1.54960937 24.87875 -1.54296875 25.75 C-1.38654076 28.02002477 -1.00589814 30.00711604 -0.375 32.1875 C1.935 32.8475 4.245 33.5075 6.625 34.1875 C6.31491116 35.79213449 6.00183713 37.39619231 5.6875 39 C5.42646484 40.33998047 5.42646484 40.33998047 5.16015625 41.70703125 C4.625 44.1875 4.625 44.1875 3.625 47.1875 C-1.53844736 47.74851843 -5.98333566 48.12172115 -10.25 44.8125 C-16.22194315 38.7276123 -17.61360767 31.89111625 -17.8125 23.5625 C-17.51845416 14.13406257 -15.25906213 7.80310288 -8.375 1.1875 C-5.5555932 -0.2222034 -3.14232774 0.01765353 0 0 Z " fill="#FFFEFD" transform="translate(298.375,240.8125)"/>
<path d="M0 0 C10.23 0 20.46 0 31 0 C29.6078125 5.630625 29.6078125 5.630625 28.1875 11.375 C27.90156982 12.53692871 27.61563965 13.69885742 27.32104492 14.89599609 C25.7220316 21.32587361 23.95558643 27.66930279 22 34 C24.97 34 27.94 34 31 34 C30.7107506 35.64625988 30.41843946 37.29198182 30.125 38.9375 C29.88136719 40.31228516 29.88136719 40.31228516 29.6328125 41.71484375 C28.8406434 45.82727718 27.90851244 49.91169402 27 54 C16.77 54 6.54 54 -4 54 C-1.75 42.75 -1.75 42.75 -0.2734375 37.7734375 C0.0359375 36.72285156 0.3453125 35.67226563 0.6640625 34.58984375 C0.98117187 33.52894531 1.29828125 32.46804688 1.625 31.375 C1.94984375 30.27542969 2.2746875 29.17585938 2.609375 28.04296875 C3.402364 25.36080009 4.19930166 22.67987525 5 20 C2.03 20 -0.94 20 -4 20 C-3.32349889 12.96438845 -1.76470513 7.05882052 0 0 Z " fill="#FFFDFC" transform="translate(331,238)"/>
<path d="M0 0 C6.1464242 2.79382918 9.52502517 7.83933965 12.3125 13.8125 C13 17 13 17 13 27 C4.75 27 -3.5 27 -12 27 C-8.81989159 33.7763932 -8.81989159 33.7763932 -5 36 C-2.23344676 36.14245897 0.42653306 36.18769445 3.1875 36.125 C3.93708984 36.11597656 4.68667969 36.10695313 5.45898438 36.09765625 C7.30612654 36.07412578 9.15310412 36.03825561 11 36 C10.343621 40.48525648 9.29925791 44.66914029 8 49 C5.16560863 49.10901505 2.33549797 49.18777904 -0.5 49.25 C-1.68722656 49.30027344 -1.68722656 49.30027344 -2.8984375 49.3515625 C-9.74436639 49.46379084 -14.96594526 47.84076554 -20.0234375 43.10546875 C-26.03090101 34.58042661 -27.08053641 26.3340663 -26 16 C-24.14381844 9.26908921 -20.63028765 4.54868102 -14.6015625 1 C-9.73941258 -0.8689345 -5.09503606 -0.83704164 0 0 Z " fill="#FFFDFC" transform="translate(391,240)"/>
<path d="M0 0 C5.94 0 11.88 0 18 0 C18 18.15 18 36.3 18 55 C18.99 55 19.98 55 21 55 C20.88265487 56.33402882 20.75557824 57.6672014 20.625 59 C20.55539063 59.7425 20.48578125 60.485 20.4140625 61.25 C19.86725327 64.88163867 18.89073003 68.43707988 18 72 C12.06 72 6.12 72 0 72 C0 54.18 0 36.36 0 18 C-0.99 18 -1.98 18 -3 18 C-2.8831456 16.49934346 -2.75597952 14.9994897 -2.625 13.5 C-2.55539063 12.6646875 -2.48578125 11.829375 -2.4140625 10.96875 C-1.89691329 7.26088771 -0.90799346 3.63197383 0 0 Z " fill="#FFAB5E" transform="translate(169,145)"/>
<path d="M0 0 C5.94 0 11.88 0 18 0 C18.33 0.66 18.66 1.32 19 2 C19.99 1.34 20.98 0.68 22 0 C24.33199388 -0.07905064 26.66832622 -0.08798769 29 0 C28.48517081 5.852795 27.54642808 11.3297637 26 17 C23.69 17.66 21.38 18.32 19 19 C18.67 29.56 18.34 40.12 18 51 C12.06 51 6.12 51 0 51 C0 39.78 0 28.56 0 17 C-0.99 17 -1.98 17 -3 17 C-2.36809392 11.2075276 -1.3298475 5.67401601 0 0 Z " fill="#FFAA5C" transform="translate(60,166)"/>
<path d="M0 0 C4.95 0 9.9 0 15 0 C15 18.15 15 36.3 15 55 C15.99 55 16.98 55 18 55 C17.34 59.29 16.68 63.58 16 68 C11.05 68 6.1 68 1 68 C1 50.18 1 32.36 1 14 C-0.32 13.67 -1.64 13.34 -3 13 C-2.01 8.71 -1.02 4.42 0 0 Z " fill="#FFFEFE" transform="translate(257,220)"/>
<path d="M0 0 C6.6 0 13.2 0 20 0 C20 6.93 20 13.86 20 21 C21.98 20.896875 23.96 20.79375 26 20.6875 C31.22549512 20.72721603 35.07085928 20.93105321 39.27734375 24.1640625 C46.43747255 31.79503877 47.76381593 40.12350862 47.57910156 50.18847656 C47.29012555 56.1184553 46.38653462 61.00869637 43 66 C42.443125 66.928125 41.88625 67.85625 41.3125 68.8125 C33.63065177 76.07911319 24.45012403 75.49565522 14.4375 75.25 C9.673125 75.1675 4.90875 75.085 0 75 C0 56.85 0 38.7 0 20 C-1.32 20 -2.64 20 -4 20 C-3.7107506 18.35374012 -3.41843946 16.70801818 -3.125 15.0625 C-2.96257812 14.14597656 -2.80015625 13.22945312 -2.6328125 12.28515625 C-1.8406434 8.17272282 -0.90851244 4.08830598 0 0 Z M3 3 C1.47625318 6.80936706 0.72113533 8.94732215 0.375 12.8125 C0.30023438 13.60269531 0.22546875 14.39289063 0.1484375 15.20703125 C0.09945312 15.79871094 0.05046875 16.39039063 0 17 C0.99 17 1.98 17 3 17 C3 34.82 3 52.64 3 71 C8.61 71 14.22 71 20 71 C20.66 71.33 21.32 71.66 22 72 C27.8540907 72.85017915 32.39221731 72.15439693 37.203125 68.6328125 C42.16098169 64.12762969 43.97454719 59.93947905 44.44140625 53.25 C44.50046575 51.47969156 44.54054017 49.70865718 44.5625 47.9375 C44.57732422 47.08663818 44.59214844 46.23577637 44.60742188 45.35913086 C44.4857657 37.88668976 42.33840224 32.68060745 37.4375 27.0625 C34.05580667 24.20106718 31.59403731 23.87544873 27.3125 23.9375 C26.50425781 23.94652344 25.69601563 23.95554688 24.86328125 23.96484375 C24.24839844 23.97644531 23.63351563 23.98804688 23 24 C22.49528803 25.76949612 21.99639315 27.54065223 21.5 29.3125 C21.2215625 30.29863281 20.943125 31.28476563 20.65625 32.30078125 C19.88187804 35.02287203 19.88187804 35.02287203 20 38 C21.11375 38.268125 22.2275 38.53625 23.375 38.8125 C27 40 27 40 29 43 C29.61431426 47.26030926 29.35789096 51.02574128 27.875 55.0625 C26 57 26 57 22.9375 57.4375 C20 57 20 57 18 55 C17.7215271 52.78536987 17.7215271 52.78536987 17.68115234 49.99951172 C17.66128265 48.95858368 17.64141296 47.91765564 17.62094116 46.84518433 C17.60938995 45.71807037 17.59783875 44.59095642 17.5859375 43.4296875 C17.55688828 41.70264084 17.55688828 41.70264084 17.5272522 39.94070435 C17.46732628 36.25221231 17.42101874 32.56368928 17.375 28.875 C17.33683223 26.37889241 17.29778122 23.88279815 17.2578125 21.38671875 C17.16161396 15.25792044 17.07763098 9.12906049 17 3 C12.38 3 7.76 3 3 3 Z " fill="#FFB26B" transform="translate(204,217)"/>
<path d="M0 0 C5.94 0 11.88 0 18 0 C18 11.22 18 22.44 18 34 C18.99 34 19.98 34 21 34 C20.88366642 35.52152079 20.7564113 37.04220723 20.625 38.5625 C20.55539063 39.40941406 20.48578125 40.25632813 20.4140625 41.12890625 C20 44 20 44 18 51 C12.39 51 6.78 51 1 51 C1 39.78 1 28.56 1 17 C-0.32 17 -1.64 17 -3 17 C-2.25290691 11.2722863 -1.16268651 5.65840766 0 0 Z " fill="#FFA959" transform="translate(143,166)"/>
<path d="M0 0 C4.95 0 9.9 0 15 0 C15.33 1.98 15.66 3.96 16 6 C16.721875 5.01 17.44375 4.02 18.1875 3 C19.41796875 1.3125 19.41796875 1.3125 21 0 C23.67578125 -0.1875 23.67578125 -0.1875 26 0 C25.85915204 1.79206547 25.71216299 3.58364917 25.5625 5.375 C25.48128906 6.37273437 25.40007812 7.37046875 25.31640625 8.3984375 C25 11 25 11 24 13 C23.030625 13.309375 22.06125 13.61875 21.0625 13.9375 C17.7319557 14.74744122 17.7319557 14.74744122 16 18 C15.6303565 21.10208984 15.6303565 21.10208984 15.5859375 24.63671875 C15.54726563 25.93544922 15.50859375 27.23417969 15.46875 28.57226562 C15.43729483 29.94400573 15.40604749 31.31575061 15.375 32.6875 C15.33680803 34.07098785 15.29775558 35.45445223 15.2578125 36.83789062 C15.16339733 40.22503472 15.08060428 43.61249911 15 47 C10.38 47 5.76 47 1 47 C1 36.11 1 25.22 1 14 C0.01 14 -0.98 14 -2 14 C-1.43254837 9.2982579 -0.7795919 4.67755138 0 0 Z " fill="#FFFEFD" transform="translate(412,241)"/>
<path d="M0 0 C-0.28438952 1.89693861 -0.57783792 3.79252027 -0.875 5.6875 C-1.03742188 6.74324219 -1.19984375 7.79898438 -1.3671875 8.88671875 C-1.95893069 11.79794914 -2.8031806 14.28955607 -4 17 C-6.64 16.34 -9.28 15.68 -12 15 C-11.39671875 15.35191406 -10.7934375 15.70382812 -10.171875 16.06640625 C-5.02154448 19.2479814 -0.78351062 21.99984506 1 28 C1.76044059 32.96287544 1.67989914 37.3721102 -0.6875 41.875 C-3.78157741 46.0561857 -7.15392525 49.06817463 -12 51 C-20.5027641 51.76218025 -28.08309934 51.33343186 -36 48 C-35.42978625 41.04339229 -33.98697306 34.68572695 -32 28 C-31.45730469 28.28875 -30.91460937 28.5775 -30.35546875 28.875 C-29.64003906 29.24625 -28.92460937 29.6175 -28.1875 30 C-27.47980469 30.37125 -26.77210938 30.7425 -26.04296875 31.125 C-23.91079271 32.19685358 -23.91079271 32.19685358 -21 32 C-21.59167969 31.64808594 -22.18335938 31.29617188 -22.79296875 30.93359375 C-27.89145849 27.74807732 -32.65143812 24.73591075 -35 19 C-35.88523875 14.09957119 -35.68128362 9.65409992 -33.375 5.1875 C-25.08268295 -5.94166235 -11.69206883 -7.33620005 0 0 Z M-29.3125 4.5625 C-32.11951332 8.61707479 -32.70670004 12.12040446 -32 17 C-30.05912001 22.00577128 -27.71353062 24.37194381 -23.3125 27.375 C-22.31863281 28.06335938 -21.32476562 28.75171875 -20.30078125 29.4609375 C-19.54152344 29.96882813 -18.78226562 30.47671875 -18 31 C-18.33 32.32 -18.66 33.64 -19 35 C-23.21878192 35.19622241 -26.17010894 34.80230168 -30 33 C-31.58255197 37.32564205 -32.45144652 41.428721 -33 46 C-28.77564121 48.03515174 -25.22725175 48.29840709 -20.5625 48.3125 C-19.28503906 48.32925781 -18.00757813 48.34601563 -16.69140625 48.36328125 C-11.48605089 47.85100818 -8.2322679 46.33218151 -4.6875 42.5 C-2.44362131 39.17573527 -1.83052207 36.55716087 -1.75 32.625 C-1.72421875 31.87476563 -1.6984375 31.12453125 -1.671875 30.3515625 C-2.1080708 27.22549261 -3.09608992 25.51833542 -5 23 C-7.80997102 21.04399991 -10.71542937 19.42181464 -13.69921875 17.74609375 C-14.83810547 16.88177734 -14.83810547 16.88177734 -16 16 C-16 14.68 -16 13.36 -16 12 C-9.375 11.875 -9.375 11.875 -6 13 C-4.00214565 8.8794254 -3.82164485 5.54805635 -4 1 C-11.86458828 -3.81466258 -23.284584 -2.11708259 -29.3125 4.5625 Z " fill="#FFB066" transform="translate(476,241)"/>
<path d="M0 0 C10.23 0 20.46 0 31 0 C29.6078125 5.630625 29.6078125 5.630625 28.1875 11.375 C27.90156982 12.53692871 27.61563965 13.69885742 27.32104492 14.89599609 C25.7220316 21.32587361 23.95558643 27.66930279 22 34 C24.97 34 27.94 34 31 34 C30.7107506 35.64625988 30.41843946 37.29198182 30.125 38.9375 C29.88136719 40.31228516 29.88136719 40.31228516 29.6328125 41.71484375 C28.8406434 45.82727718 27.90851244 49.91169402 27 54 C16.77 54 6.54 54 -4 54 C-1.75 42.75 -1.75 42.75 -0.2734375 37.7734375 C0.0359375 36.72285156 0.3453125 35.67226563 0.6640625 34.58984375 C0.98117187 33.52894531 1.29828125 32.46804688 1.625 31.375 C1.94984375 30.27542969 2.2746875 29.17585938 2.609375 28.04296875 C3.402364 25.36080009 4.19930166 22.67987525 5 20 C2.03 20 -0.94 20 -4 20 C-3.32349889 12.96438845 -1.76470513 7.05882052 0 0 Z M2 3 C-1.1315587 12.58208954 -1.1315587 12.58208954 -1 17 C2.3 17 5.6 17 9 17 C8.51789063 18.54429687 8.03578125 20.08859375 7.5390625 21.6796875 C6.90078235 23.74471153 6.2627761 25.80982024 5.625 27.875 C5.30789063 28.88820313 4.99078125 29.90140625 4.6640625 30.9453125 C4.3546875 31.95078125 4.0453125 32.95625 3.7265625 33.9921875 C3.44377441 34.90339355 3.16098633 35.81459961 2.86962891 36.75341797 C1.70066173 41.11751833 0.88604254 45.56978728 0 50 C8.25 50 16.5 50 25 50 C26.80711963 43.35004928 26.80711963 43.35004928 27 37 C24.03 37 21.06 37 18 37 C18.20157715 36.32533691 18.4031543 35.65067383 18.61083984 34.95556641 C19.53684188 31.8467313 20.45595387 28.73589821 21.375 25.625 C21.69210937 24.56410156 22.00921875 23.50320313 22.3359375 22.41015625 C22.6453125 21.35957031 22.9546875 20.30898438 23.2734375 19.2265625 C23.69761963 17.79691162 23.69761963 17.79691162 24.13037109 16.33837891 C25.27680398 11.93738979 26.10809164 7.4595418 27 3 C18.75 3 10.5 3 2 3 Z " fill="#FFB169" transform="translate(331,238)"/>
<path d="M0 0 C3 0.5 3 0.5 4.66918945 1.58911133 C6.7118357 4.52211301 6.33623484 7.0408217 6.29296875 10.57421875 C6.28872391 11.2580513 6.28447906 11.94188385 6.28010559 12.6464386 C6.26333353 14.82719561 6.22568657 17.00702309 6.1875 19.1875 C6.17245114 20.66730435 6.15876308 22.1471232 6.14648438 23.62695312 C6.11343569 27.25160336 6.06166446 30.87571094 6 34.5 C8.43787385 34.3590651 10.87517853 34.21245458 13.3125 34.0625 C14.00279297 34.02318359 14.69308594 33.98386719 15.40429688 33.94335938 C18.47161535 33.75072585 21.06968152 33.47677283 24 32.5 C23.67 34.48 23.34 36.46 23 38.5 C18.85422725 38.55863894 14.70856295 38.59380984 10.5625 38.625 C9.39783203 38.64175781 8.23316406 38.65851563 7.03320312 38.67578125 C-2.85991587 38.73151713 -10.89705915 38.60989833 -18.3359375 31.5859375 C-21.003667 28.24188221 -22.09959277 24.63624572 -23 20.5 C-22.34 20.5 -21.68 20.5 -21 20.5 C-20.67 19.84 -20.34 19.18 -20 18.5 C-19.78085937 19.16386719 -19.56171875 19.82773437 -19.3359375 20.51171875 C-17.18541237 26.49996962 -15.60423782 30.28275236 -10 33.5 C-6.66255777 34.15949457 -3.39799294 34.42613059 0 34.5 C0.13277344 33.72914063 0.26554687 32.95828125 0.40234375 32.1640625 C0.57894531 31.16117187 0.75554687 30.15828125 0.9375 29.125 C1.11152344 28.12726563 1.28554688 27.12953125 1.46484375 26.1015625 C2 23.5 2 23.5 3 21.5 C2.236875 21.396875 1.47375 21.29375 0.6875 21.1875 C-2.20604856 20.4472899 -3.16791435 19.79010706 -5 17.5 C-6.84640274 13.80719453 -6.34240463 9.53910647 -6 5.5 C-4.59031625 1.5842118 -4.1374917 0.68958195 0 0 Z " fill="#FFB36C" transform="translate(302,253.5)"/>
<path d="M0 0 C5.61 0 11.22 0 17 0 C16.53910547 6.29889197 16.01872253 10.9438324 14 17 C8.39 17 2.78 17 -3 17 C-2.17827559 11.24792911 -1.16740628 5.68137722 0 0 Z " fill="#FFAA5B" transform="translate(146,145)"/>
<path d="M0 0 C0.33 0.99 0.66 1.98 1 3 C2.32 3 3.64 3 5 3 C5 20.49 5 37.98 5 56 C13.415 55.505 13.415 55.505 22 55 C22.66 55.33 23.32 55.66 24 56 C25.87379605 56.07033769 27.75001102 56.0843022 29.625 56.0625 C30.62789062 56.05347656 31.63078125 56.04445313 32.6640625 56.03515625 C33.43492187 56.02355469 34.20578125 56.01195312 35 56 C34 59 34 59 32 60 C29.74879258 60.08573394 27.49500697 60.10712188 25.2421875 60.09765625 C24.02901855 60.09515869 22.81584961 60.09266113 21.56591797 60.09008789 C20.01791504 60.08098389 18.46991211 60.07187988 16.875 60.0625 C11.96625 60.041875 7.0575 60.02125 2 60 C2 41.85 2 23.7 2 5 C0.68 5 -0.64 5 -2 5 C-1.125 1.125 -1.125 1.125 0 0 Z " fill="#FFB169" transform="translate(202,232)"/>
<path d="M0 0 C6.6328125 -0.2421875 6.6328125 -0.2421875 9.9375 1.9375 C12.71951666 6.06837323 12.90902022 9.15755583 12 14 C10.375 17.5625 10.375 17.5625 8 20 C4.875 20.5 4.875 20.5 2 20 C0 18 0 18 -0.22705078 16.12060547 C-0.21657715 15.37697754 -0.20610352 14.63334961 -0.1953125 13.8671875 C-0.18886719 13.06152344 -0.18242187 12.25585938 -0.17578125 11.42578125 C-0.15064453 10.16314453 -0.15064453 10.16314453 -0.125 8.875 C-0.11597656 8.02550781 -0.10695312 7.17601562 -0.09765625 6.30078125 C-0.07405647 4.20040116 -0.03818483 2.10016556 0 0 Z " fill="#FFAE63" transform="translate(222,255)"/>
<path d="M0 0 C2.375 0.75 2.375 0.75 3.375 1.75 C3.44819621 4.44654854 3.46742537 7.11691458 3.4375 9.8125 C3.43298828 10.57111328 3.42847656 11.32972656 3.42382812 12.11132812 C3.4120068 13.99091871 3.39407078 15.87046899 3.375 17.75 C0.5625 18 0.5625 18 -2.625 17.75 C-5.02403856 15.60908584 -5.553699 14.23163129 -6.0234375 11.05859375 C-6.01570313 10.11113281 -6.00796875 9.16367188 -6 8.1875 C-6.00773437 7.23746094 -6.01546875 6.28742188 -6.0234375 5.30859375 C-5.625 2.75 -5.625 2.75 -4.265625 0.89453125 C-2.625 -0.25 -2.625 -0.25 0 0 Z " fill="#FFFCFA" transform="translate(114.625,182.25)"/>
<path d="M0 0 C0.33 1.32 0.66 2.64 1 4 C5.12528499 3.86160047 9.25014108 3.7130259 13.375 3.5625 C14.550625 3.52318359 15.72625 3.48386719 16.9375 3.44335938 C18.05898438 3.40146484 19.18046875 3.35957031 20.3359375 3.31640625 C21.37282715 3.27974854 22.4097168 3.24309082 23.47802734 3.20532227 C25.99425166 3.15835777 25.99425166 3.15835777 28 2 C28 3.98 28 5.96 28 8 C17.77 8 7.54 8 -3 8 C-2 2 -2 2 0 0 Z " fill="#FFB978" transform="translate(330,284)"/>
<path d="M0 0 C1.85625 0.061875 1.85625 0.061875 3.75 0.125 C3.75 0.455 3.75 0.785 3.75 1.125 C1.44 1.455 -0.87 1.785 -3.25 2.125 C-0.61 2.455 2.03 2.785 4.75 3.125 C4.75 3.455 4.75 3.785 4.75 4.125 C3.66332031 4.14626953 3.66332031 4.14626953 2.5546875 4.16796875 C-4.03227391 4.39326832 -4.03227391 4.39326832 -9.75 7.3125 C-15.56067911 13.849514 -16.18544935 20.68373955 -17.25 29.125 C-19.67529064 26.96990089 -20.20692679 26.42651247 -20.6875 23.0625 C-19.74472612 14.57753504 -16.88409002 8.89019814 -10.25 3.5 C-6.75187443 1.09503867 -4.29296512 -0.14309884 0 0 Z " fill="#FFAF66" transform="translate(298.25,236.875)"/>
<path d="M0 0 C2.4375 0.8125 2.4375 0.8125 4.4375 2.8125 C4.83797444 5.13525177 5.1772104 7.46989357 5.4375 9.8125 C1.4775 9.8125 -2.4825 9.8125 -6.5625 9.8125 C-5.9625 3.4525 -5.9625 3.4525 -4.3125 0.8125 C-2.5625 -0.1875 -2.5625 -0.1875 0 0 Z " fill="#FFBA7A" transform="translate(385.5625,250.1875)"/>
<path d="M0 0 C1.65 0 3.3 0 5 0 C6.99825961 2.99738941 7.27550398 3.63347508 7.25 7 C7.25515625 7.680625 7.2603125 8.36125 7.265625 9.0625 C7 11 7 11 5 14 C3.35 13.67 1.7 13.34 0 13 C0 8.71 0 4.42 0 0 Z " fill="#FFF8F1" transform="translate(224,258)"/>
<path d="M0 0 C1.65 0.33 3.3 0.66 5 1 C5 5.62 5 10.24 5 15 C1 14 1 14 -1 12 C-1.23046875 9.6875 -1.23046875 9.6875 -1.1875 7 C-1.18105469 6.113125 -1.17460937 5.22625 -1.16796875 4.3125 C-1 2 -1 2 0 0 Z " fill="#FFFDFB" transform="translate(300,257)"/>
<path d="M0 0 C-0.33 4.62 -0.66 9.24 -1 14 C-4 11 -4 11 -4.25 7.5 C-4 4 -4 4 -3 1 C-1 0 -1 0 0 0 Z " fill="#FFB169" transform="translate(282,252)"/>
<path d="M0 0 C0 0.33 0 0.66 0 1 C-2.31 1.33 -4.62 1.66 -7 2 C-4.36 2.33 -1.72 2.66 1 3 C1 3.33 1 3.66 1 4 C0.24074219 4.06058594 -0.51851563 4.12117187 -1.30078125 4.18359375 C-2.29464844 4.26738281 -3.28851563 4.35117188 -4.3125 4.4375 C-5.29863281 4.51871094 -6.28476562 4.59992188 -7.30078125 4.68359375 C-10.09375599 4.91812559 -10.09375599 4.91812559 -13 6 C-12.67012361 3.52592708 -12.42027913 2.3362233 -10.4375 0.75 C-6.89085382 -0.34127575 -3.70471601 -0.12349053 0 0 Z " fill="#FFC38C" transform="translate(302,237)"/>
<path d="M0 0 C0.66 0.33 1.32 0.66 2 1 C1.34 4.63 0.68 8.26 0 12 C-0.33 12 -0.66 12 -1 12 C-1.144375 11.21625 -1.28875 10.4325 -1.4375 9.625 C-1.87798925 7.03578982 -1.87798925 7.03578982 -3 5 C-1.5625 2.375 -1.5625 2.375 0 0 Z " fill="#FFB571" transform="translate(299,254)"/>
<path d="M0 0 C1.66362417 0.34820041 3.32995171 0.68404492 5 1 C5 1.33 5 1.66 5 2 C1.37 2.66 -2.26 3.32 -6 4 C-6 2.68 -6 1.36 -6 0 C-3 -1 -3 -1 0 0 Z " fill="#FFB774" transform="translate(382,238)"/>
<path d="M0 0 C3.37503669 1.1858237 5.64722731 2.27573689 8 5 C2.46153846 4.38461538 2.46153846 4.38461538 0.125 2.4375 C-0.24625 1.963125 -0.6175 1.48875 -1 1 C-0.67 0.67 -0.34 0.34 0 0 Z " fill="#FFF5ED" transform="translate(448,269)"/>
<path d="M0 0 C0 4.29 0 8.58 0 13 C-0.33 13 -0.66 13 -1 13 C-1.144375 11.7625 -1.28875 10.525 -1.4375 9.25 C-1.78688502 6.43495501 -2.20379366 3.7298503 -3 1 C-1 0 -1 0 0 0 Z " fill="#FFB875" transform="translate(365,255)"/>
<path d="M0 0 C0.33 0 0.66 0 1 0 C1 1.98 1 3.96 1 6 C-0.98 6 -2.96 6 -5 6 C-3.35830472 3.97945196 -1.69088222 1.97956942 0 0 Z " fill="#FFAA5C" transform="translate(401,285)"/>
<path d="M0 0 C0.66 0.33 1.32 0.66 2 1 C1.67 3.31 1.34 5.62 1 8 C0.01 7.34 -0.98 6.68 -2 6 C-1.125 1.125 -1.125 1.125 0 0 Z " fill="#FFB672" transform="translate(276,275)"/>
<path d="M0 0 C5.75 0.875 5.75 0.875 8 2 C7.67 2.99 7.34 3.98 7 5 C3.535 3.02 3.535 3.02 0 1 C0 0.67 0 0.34 0 0 Z " fill="#FFF5EC" transform="translate(462,255)"/>
</svg>
